<svg width="1080" height="1080" viewBox="0 0 1080 1080" fill="none" xmlns="http://www.w3.org/2000/svg">
<path d="M599.128 348H491.552L347 693H439.446L545.34 426.333L649.554 693H742L599.128 348Z" fill="#00AF66"/>
<path d="M782.346 780.124C755.423 800.138 725.135 815.149 691.481 828.489C516.483 896.872 321.291 825.155 253.984 663.374C186.676 499.927 270.811 308.124 445.81 239.742C481.147 226.399 516.484 218.06 551.819 214.725L518.165 133C479.463 136.335 440.762 146.342 403.742 161.353C188.359 246.413 85.7157 488.25 173.215 696.731C259.032 905.212 501.339 1000.28 716.723 916.886C752.059 903.542 787.394 885.198 816 865.183L782.346 780.124Z" fill="#00AF66"/>
</svg>
